<?xml version="1.0" standalone="no"?><!DOCTYPE svg PUBLIC "-//W3C//DTD SVG 1.1//EN" "http://www.w3.org/Graphics/SVG/1.1/DTD/svg11.dtd"><svg t="1687053534275" class="icon" viewBox="0 0 1024 1024" version="1.1" xmlns="http://www.w3.org/2000/svg" p-id="7885" data-darkreader-inline-fill="" xmlns:xlink="http://www.w3.org/1999/xlink" width="200" height="200"><path d="M799.2 310.4h-74.5L591.8 169c-20.3-21.6-48.9-34-78.5-34h-0.2c-29.5 0-58.1 12.3-78.4 33.8L300.8 310.4h-76.1c-53.3 0-96.6 43.2-96.6 96.6v385c0 53.3 43.2 96.6 96.6 96.6h574.4c53.3 0 96.6-43.2 96.6-96.6V406.9c0.1-53.3-43.1-96.5-96.5-96.5zM474 205.8c10.3-10.9 24.2-16.9 39.2-16.9h0.1c15 0 29 6.1 39.2 17l98.2 104.4H375.1L474 205.8zM250.7 431.3h359.5c17.7 0 32.1 14.4 32.1 32.1 0 17.7-14.4 32.1-32.1 32.1H250.7c-17.7 0-32.1-14.4-32.1-32.1 0.1-17.8 14.4-32.1 32.1-32.1z m280.4 313.1c0 15.2-12.3 27.5-27.5 27.5H246.2c-15.2 0-27.5-12.3-27.5-27.5v-9.1c0-15.2 12.3-27.5 27.5-27.5h257.3c15.2 0 27.5 12.3 27.5 27.5v9.1z m259.5-110.7H250.7c-17.7 0-32.1-14.4-32.1-32.1 0-17.7 14.4-32.1 32.1-32.1h539.9c17.7 0 32.1 14.4 32.1 32.1 0 17.7-14.3 32.1-32.1 32.1z" fill="#231815" p-id="7886" data-darkreader-inline-fill="" style="--darkreader-inline-fill: #2c2f31;"></path><path d="M513.4 230m-29.8 0a29.8 29.8 0 1 0 59.6 0 29.8 29.8 0 1 0-59.6 0Z" fill="#231815" p-id="7887" data-darkreader-inline-fill="" style="--darkreader-inline-fill: #2c2f31;"></path></svg>