<?xml version="1.0" standalone="no"?><!DOCTYPE svg PUBLIC "-//W3C//DTD SVG 1.1//EN" "http://www.w3.org/Graphics/SVG/1.1/DTD/svg11.dtd"><svg t="1687053558845" class="icon" viewBox="0 0 1024 1024" version="1.1" xmlns="http://www.w3.org/2000/svg" p-id="8130" data-darkreader-inline-fill="" xmlns:xlink="http://www.w3.org/1999/xlink" width="200" height="200"><path d="M815.347144 223.32236c-8.457862 2.52252-17.586009 3.760756-25.281487 7.756878-200.895978 104.262469-401.679388 208.739839-602.268366 313.590726-7.270794 3.801689-12.361885 11.768351-18.466077 17.795793 7.429411 4.998991 14.203887 12.003718 22.390566 14.679738 53.341328 17.417159 106.841273 34.409634 160.643102 50.342957 15.216989 4.50779 21.162564 9.931465 9.542597 26.959756-34.4608-10.837116-69.822136-21.924949-105.157887-33.079298-38.119223-12.029301-76.427762-23.521351-114.158117-36.66097-8.202029-2.855104-19.821996-11.579034-19.975496-17.846959-0.189317-7.664778 8.365762-18.583761 16.056124-22.871534 31.93828-17.816259 64.940828-33.744466 97.621026-50.225274 215.811083-108.811193 431.601699-217.658202 647.622565-326.044711 6.682376-3.351422 15.825873-1.806186 23.823235-2.542987 0.880068 9.808664 4.083106 20.067596 2.287153 29.35436-16.977125 87.679328-34.772918 175.194923-52.389627 262.751452-19.791296 98.352711-39.766792 196.674721-59.39947 295.058132-7.572678 37.955489-22.518483 48.137671-59.266437 37.254505-70.891521-21.003947-141.568141-42.734463-212.648978-64.260311-0.19955-20.113646 8.636946-22.564533 25.660121-17.212492 61.650807 19.381962 123.644431 37.679189 185.505022 56.390866 29.282726 8.856963 32.434598 7.685245 38.242023-20.922081 33.002548-162.541388 65.698096-325.13906 98.188977-487.782781 1.570819-7.869445 0.19955-16.322191 0.19955-31.380563-12.167451 8.749513-21.085814 13.011702-27.12349 19.821996-121.485195 137.121751-242.990856 274.228152-363.207115 412.455104-9.967281 11.46135-14.388088 30.756328-15.104422 46.689652-2.174587 48.500954-0.808435 97.150292-2.082486 145.70753-0.189317 7.168461-7.199161 14.162954-11.057133 21.234198-3.709589-7.296377-10.504532-14.541588-10.637566-21.904482-0.941468-50.286674-2.50717-100.726848 0.537251-150.849788 1.192185-19.648029 9.15373-42.575846 21.843082-57.255584 111.43093-128.904372 224.673162-256.237925 337.173477-384.216179 6.73866-7.664778 11.717184-16.879908 17.519492-25.373587C819.757717 228.270184 817.552431 225.798831 815.347144 223.32236z" p-id="8131"></path></svg>