<?xml version="1.0" standalone="no"?><!DOCTYPE svg PUBLIC "-//W3C//DTD SVG 1.1//EN" "http://www.w3.org/Graphics/SVG/1.1/DTD/svg11.dtd"><svg t="1687053391367" class="icon" viewBox="0 0 1024 1024" version="1.1" xmlns="http://www.w3.org/2000/svg" p-id="1590" data-darkreader-inline-fill="" xmlns:xlink="http://www.w3.org/1999/xlink" width="200" height="200"><path d="M882.3 73.3H180.4v96.5h0.2v679h-0.2v99.3h702c32.2 0 56.2-27.9 56.2-60V130c0-32.2-24-56.7-56.3-56.7z m-527 816.4H244.6v-758h110.7v758z" p-id="1591"></path><path d="M277.6 348.3H120.1c-26.4 0-48-21.6-48-48v-22.5c0-26.4 21.6-48 48-48h157.5c26.4 0 48 21.6 48 48v22.5c0 26.4-21.6 48-48 48zM277.6 807.8H120.1c-26.4 0-48-21.6-48-48v-22.5c0-26.4 21.6-48 48-48h157.5c26.4 0 48 21.6 48 48v22.5c0 26.4-21.6 48-48 48zM282 578.1H124.6c-26.4 0-48-21.6-48-48v-22.5c0-26.4 21.6-48 48-48H282c26.4 0 48 21.6 48 48V530c0 26.5-21.6 48.1-48 48.1z" p-id="1592"></path></svg>